<svg width="72" height="65" viewBox="0 0 72 65" fill="none" xmlns="http://www.w3.org/2000/svg">
<ellipse cx="36" cy="32.5" rx="36" ry="32.5" fill="#C4C4C4" fill-opacity="0.25"/>
<path d="M29.053 32L29.041 26.432L26.281 31.04H25.585L22.825 26.504V32H21.337V23.6H22.621L25.957 29.168L29.233 23.6H30.517L30.529 32H29.053ZM35.5339 32.084C34.8859 32.084 34.3019 31.944 33.7819 31.664C33.2619 31.384 32.8539 30.996 32.5579 30.5C32.2699 29.996 32.1259 29.428 32.1259 28.796C32.1259 28.164 32.2699 27.6 32.5579 27.104C32.8539 26.608 33.2619 26.22 33.7819 25.94C34.3019 25.66 34.8859 25.52 35.5339 25.52C36.1899 25.52 36.7779 25.66 37.2979 25.94C37.8179 26.22 38.2219 26.608 38.5099 27.104C38.8059 27.6 38.9539 28.164 38.9539 28.796C38.9539 29.428 38.8059 29.996 38.5099 30.5C38.2219 30.996 37.8179 31.384 37.2979 31.664C36.7779 31.944 36.1899 32.084 35.5339 32.084ZM35.5339 30.8C36.0859 30.8 36.5419 30.616 36.9019 30.248C37.2619 29.88 37.4419 29.396 37.4419 28.796C37.4419 28.196 37.2619 27.712 36.9019 27.344C36.5419 26.976 36.0859 26.792 35.5339 26.792C34.9819 26.792 34.5259 26.976 34.1659 27.344C33.8139 27.712 33.6379 28.196 33.6379 28.796C33.6379 29.396 33.8139 29.88 34.1659 30.248C34.5259 30.616 34.9819 30.8 35.5339 30.8ZM41.8163 26.528C42.2483 25.856 43.0083 25.52 44.0963 25.52V26.948C43.9683 26.924 43.8523 26.912 43.7483 26.912C43.1643 26.912 42.7083 27.084 42.3803 27.428C42.0523 27.764 41.8883 28.252 41.8883 28.892V32H40.3883V25.592H41.8163V26.528ZM51.3342 28.832C51.3342 28.936 51.3262 29.084 51.3102 29.276H46.2822C46.3702 29.748 46.5982 30.124 46.9662 30.404C47.3422 30.676 47.8062 30.812 48.3582 30.812C49.0622 30.812 49.6422 30.58 50.0982 30.116L50.9022 31.04C50.6142 31.384 50.2502 31.644 49.8102 31.82C49.3702 31.996 48.8742 32.084 48.3222 32.084C47.6182 32.084 46.9982 31.944 46.4622 31.664C45.9262 31.384 45.5102 30.996 45.2142 30.5C44.9262 29.996 44.7822 29.428 44.7822 28.796C44.7822 28.172 44.9222 27.612 45.2022 27.116C45.4902 26.612 45.8862 26.22 46.3902 25.94C46.8942 25.66 47.4622 25.52 48.0942 25.52C48.7182 25.52 49.2742 25.66 49.7622 25.94C50.2582 26.212 50.6422 26.6 50.9142 27.104C51.1942 27.6 51.3342 28.176 51.3342 28.832ZM48.0942 26.72C47.6142 26.72 47.2062 26.864 46.8702 27.152C46.5422 27.432 46.3422 27.808 46.2702 28.28H49.9062C49.8422 27.816 49.6462 27.44 49.3182 27.152C48.9902 26.864 48.5822 26.72 48.0942 26.72ZM25.107 40.592H26.607V47H25.107V40.592ZM25.863 39.536C25.591 39.536 25.363 39.452 25.179 39.284C24.995 39.108 24.903 38.892 24.903 38.636C24.903 38.38 24.995 38.168 25.179 38C25.363 37.824 25.591 37.736 25.863 37.736C26.135 37.736 26.363 37.82 26.547 37.988C26.731 38.148 26.823 38.352 26.823 38.6C26.823 38.864 26.731 39.088 26.547 39.272C26.371 39.448 26.143 39.536 25.863 39.536ZM32.2118 40.52C33.0198 40.52 33.6678 40.756 34.1558 41.228C34.6438 41.7 34.8878 42.4 34.8878 43.328V47H33.3878V43.52C33.3878 42.96 33.2558 42.54 32.9918 42.26C32.7278 41.972 32.3518 41.828 31.8638 41.828C31.3118 41.828 30.8758 41.996 30.5558 42.332C30.2358 42.66 30.0758 43.136 30.0758 43.76V47H28.5758V40.592H30.0038V41.42C30.2518 41.124 30.5638 40.9 30.9398 40.748C31.3158 40.596 31.7398 40.52 32.2118 40.52ZM39.3946 39.224C38.7626 39.224 38.4466 39.568 38.4466 40.256V40.64H40.2106V41.84H38.4946V47H36.9946V41.84H35.9386V40.64H36.9946V40.232C36.9946 39.544 37.1946 39.004 37.5946 38.612C37.9946 38.212 38.5586 38.012 39.2866 38.012C39.8626 38.012 40.3146 38.128 40.6426 38.36L40.2226 39.488C39.9666 39.312 39.6906 39.224 39.3946 39.224ZM44.0066 47.084C43.3586 47.084 42.7746 46.944 42.2546 46.664C41.7346 46.384 41.3266 45.996 41.0306 45.5C40.7426 44.996 40.5986 44.428 40.5986 43.796C40.5986 43.164 40.7426 42.6 41.0306 42.104C41.3266 41.608 41.7346 41.22 42.2546 40.94C42.7746 40.66 43.3586 40.52 44.0066 40.52C44.6626 40.52 45.2506 40.66 45.7706 40.94C46.2906 41.22 46.6946 41.608 46.9826 42.104C47.2786 42.6 47.4266 43.164 47.4266 43.796C47.4266 44.428 47.2786 44.996 46.9826 45.5C46.6946 45.996 46.2906 46.384 45.7706 46.664C45.2506 46.944 44.6626 47.084 44.0066 47.084ZM44.0066 45.8C44.5586 45.8 45.0146 45.616 45.3746 45.248C45.7346 44.88 45.9146 44.396 45.9146 43.796C45.9146 43.196 45.7346 42.712 45.3746 42.344C45.0146 41.976 44.5586 41.792 44.0066 41.792C43.4546 41.792 42.9986 41.976 42.6386 42.344C42.2866 42.712 42.1106 43.196 42.1106 43.796C42.1106 44.396 42.2866 44.88 42.6386 45.248C42.9986 45.616 43.4546 45.8 44.0066 45.8Z" fill="#FFD6BA"/>
</svg>
