<svg width="72" height="65" viewBox="0 0 72 65" fill="none" xmlns="http://www.w3.org/2000/svg">
<ellipse cx="36" cy="32.5" rx="36" ry="32.5" fill="#F5A480" fill-opacity="0.54"/>
<path d="M15.0297 24.144C14.1737 24.144 13.3977 23.96 12.7017 23.592C12.0137 23.216 11.4697 22.7 11.0697 22.044C10.6777 21.38 10.4817 20.632 10.4817 19.8C10.4817 18.968 10.6777 18.224 11.0697 17.568C11.4697 16.904 12.0137 16.388 12.7017 16.02C13.3977 15.644 14.1777 15.456 15.0417 15.456C15.7697 15.456 16.4257 15.584 17.0097 15.84C17.6017 16.096 18.0977 16.464 18.4977 16.944L17.2497 18.096C16.6817 17.44 15.9777 17.112 15.1377 17.112C14.6177 17.112 14.1537 17.228 13.7457 17.46C13.3377 17.684 13.0177 18 12.7857 18.408C12.5617 18.816 12.4497 19.28 12.4497 19.8C12.4497 20.32 12.5617 20.784 12.7857 21.192C13.0177 21.6 13.3377 21.92 13.7457 22.152C14.1537 22.376 14.6177 22.488 15.1377 22.488C15.9777 22.488 16.6817 22.156 17.2497 21.492L18.4977 22.644C18.0977 23.132 17.6017 23.504 17.0097 23.76C16.4177 24.016 15.7577 24.144 15.0297 24.144ZM19.6785 15.096H21.5505V24H19.6785V15.096ZM23.2878 17.544H25.1598V24H23.2878V17.544ZM24.2238 16.644C23.8798 16.644 23.5998 16.544 23.3838 16.344C23.1678 16.144 23.0598 15.896 23.0598 15.6C23.0598 15.304 23.1678 15.056 23.3838 14.856C23.5998 14.656 23.8798 14.556 24.2238 14.556C24.5678 14.556 24.8478 14.652 25.0638 14.844C25.2798 15.036 25.3878 15.276 25.3878 15.564C25.3878 15.876 25.2798 16.136 25.0638 16.344C24.8478 16.544 24.5678 16.644 24.2238 16.644ZM30.0172 24.096C29.3292 24.096 28.7092 23.956 28.1572 23.676C27.6132 23.388 27.1852 22.992 26.8732 22.488C26.5692 21.984 26.4172 21.412 26.4172 20.772C26.4172 20.132 26.5692 19.56 26.8732 19.056C27.1852 18.552 27.6132 18.16 28.1572 17.88C28.7092 17.592 29.3292 17.448 30.0172 17.448C30.6972 17.448 31.2892 17.592 31.7932 17.88C32.3052 18.16 32.6772 18.564 32.9092 19.092L31.4572 19.872C31.1212 19.28 30.6372 18.984 30.0052 18.984C29.5172 18.984 29.1132 19.144 28.7932 19.464C28.4732 19.784 28.3132 20.22 28.3132 20.772C28.3132 21.324 28.4732 21.76 28.7932 22.08C29.1132 22.4 29.5172 22.56 30.0052 22.56C30.6452 22.56 31.1292 22.264 31.4572 21.672L32.9092 22.464C32.6772 22.976 32.3052 23.376 31.7932 23.664C31.2892 23.952 30.6972 24.096 30.0172 24.096ZM36.7122 21.468L35.8122 22.356V24H33.9402V15.096H35.8122V20.136L38.5482 17.544H40.7802L38.0922 20.28L41.0202 24H38.7522L36.7122 21.468ZM47.3125 17.688H48.9685V19.128H47.3605V24H45.4885V19.128H44.4925V17.688H45.4885V17.4C45.4885 16.664 45.7045 16.08 46.1365 15.648C46.5765 15.216 47.1925 15 47.9845 15C48.2645 15 48.5285 15.032 48.7765 15.096C49.0325 15.152 49.2445 15.236 49.4125 15.348L48.9205 16.704C48.7045 16.552 48.4525 16.476 48.1645 16.476C47.5965 16.476 47.3125 16.788 47.3125 17.412V17.688ZM52.8911 24.096C52.2111 24.096 51.5991 23.956 51.0551 23.676C50.5191 23.388 50.0991 22.992 49.7951 22.488C49.4911 21.984 49.3391 21.412 49.3391 20.772C49.3391 20.132 49.4911 19.56 49.7951 19.056C50.0991 18.552 50.5191 18.16 51.0551 17.88C51.5991 17.592 52.2111 17.448 52.8911 17.448C53.5711 17.448 54.1791 17.592 54.7151 17.88C55.2511 18.16 55.6711 18.552 55.9751 19.056C56.2791 19.56 56.4311 20.132 56.4311 20.772C56.4311 21.412 56.2791 21.984 55.9751 22.488C55.6711 22.992 55.2511 23.388 54.7151 23.676C54.1791 23.956 53.5711 24.096 52.8911 24.096ZM52.8911 22.56C53.3711 22.56 53.7631 22.4 54.0671 22.08C54.3791 21.752 54.5351 21.316 54.5351 20.772C54.5351 20.228 54.3791 19.796 54.0671 19.476C53.7631 19.148 53.3711 18.984 52.8911 18.984C52.4111 18.984 52.0151 19.148 51.7031 19.476C51.3911 19.796 51.2351 20.228 51.2351 20.772C51.2351 21.316 51.3911 21.752 51.7031 22.08C52.0151 22.4 52.4111 22.56 52.8911 22.56ZM59.4704 18.396C59.6944 18.084 59.9944 17.848 60.3704 17.688C60.7544 17.528 61.1944 17.448 61.6904 17.448V19.176C61.4824 19.16 61.3424 19.152 61.2704 19.152C60.7344 19.152 60.3144 19.304 60.0104 19.608C59.7064 19.904 59.5544 20.352 59.5544 20.952V24H57.6824V17.544H59.4704V18.396ZM28.5558 32.448C29.3638 32.448 30.0038 32.688 30.4758 33.168C30.9558 33.64 31.1958 34.352 31.1958 35.304V39H29.3238V35.592C29.3238 35.08 29.2158 34.7 28.9998 34.452C28.7918 34.196 28.4918 34.068 28.0998 34.068C27.6598 34.068 27.3118 34.212 27.0558 34.5C26.7998 34.78 26.6718 35.2 26.6718 35.76V39H24.7998V35.592C24.7998 34.576 24.3918 34.068 23.5758 34.068C23.1438 34.068 22.7998 34.212 22.5438 34.5C22.2878 34.78 22.1598 35.2 22.1598 35.76V39H20.2878V32.544H22.0758V33.288C22.3158 33.016 22.6078 32.808 22.9518 32.664C23.3038 32.52 23.6878 32.448 24.1038 32.448C24.5598 32.448 24.9718 32.54 25.3398 32.724C25.7078 32.9 26.0038 33.16 26.2278 33.504C26.4918 33.168 26.8238 32.908 27.2238 32.724C27.6318 32.54 28.0758 32.448 28.5558 32.448ZM36.0161 39.096C35.3361 39.096 34.7241 38.956 34.1801 38.676C33.6441 38.388 33.2241 37.992 32.9201 37.488C32.6161 36.984 32.4641 36.412 32.4641 35.772C32.4641 35.132 32.6161 34.56 32.9201 34.056C33.2241 33.552 33.6441 33.16 34.1801 32.88C34.7241 32.592 35.3361 32.448 36.0161 32.448C36.6961 32.448 37.3041 32.592 37.8401 32.88C38.3761 33.16 38.7961 33.552 39.1001 34.056C39.4041 34.56 39.5561 35.132 39.5561 35.772C39.5561 36.412 39.4041 36.984 39.1001 37.488C38.7961 37.992 38.3761 38.388 37.8401 38.676C37.3041 38.956 36.6961 39.096 36.0161 39.096ZM36.0161 37.56C36.4961 37.56 36.8881 37.4 37.1921 37.08C37.5041 36.752 37.6601 36.316 37.6601 35.772C37.6601 35.228 37.5041 34.796 37.1921 34.476C36.8881 34.148 36.4961 33.984 36.0161 33.984C35.5361 33.984 35.1401 34.148 34.8281 34.476C34.5161 34.796 34.3601 35.228 34.3601 35.772C34.3601 36.316 34.5161 36.752 34.8281 37.08C35.1401 37.4 35.5361 37.56 36.0161 37.56ZM42.5954 33.396C42.8194 33.084 43.1194 32.848 43.4954 32.688C43.8794 32.528 44.3194 32.448 44.8154 32.448V34.176C44.6074 34.16 44.4674 34.152 44.3954 34.152C43.8594 34.152 43.4394 34.304 43.1354 34.608C42.8314 34.904 42.6794 35.352 42.6794 35.952V39H40.8074V32.544H42.5954V33.396ZM52.1939 35.796C52.1939 35.82 52.1819 35.988 52.1579 36.3H47.2739C47.3619 36.7 47.5699 37.016 47.8979 37.248C48.2259 37.48 48.6339 37.596 49.1219 37.596C49.4579 37.596 49.7539 37.548 50.0099 37.452C50.2739 37.348 50.5179 37.188 50.7419 36.972L51.7379 38.052C51.1299 38.748 50.2419 39.096 49.0739 39.096C48.3459 39.096 47.7019 38.956 47.1419 38.676C46.5819 38.388 46.1499 37.992 45.8459 37.488C45.5419 36.984 45.3899 36.412 45.3899 35.772C45.3899 35.14 45.5379 34.572 45.8339 34.068C46.1379 33.556 46.5499 33.16 47.0699 32.88C47.5979 32.592 48.1859 32.448 48.8339 32.448C49.4659 32.448 50.0379 32.584 50.5499 32.856C51.0619 33.128 51.4619 33.52 51.7499 34.032C52.0459 34.536 52.1939 35.124 52.1939 35.796ZM48.8459 33.864C48.4219 33.864 48.0659 33.984 47.7779 34.224C47.4899 34.464 47.3139 34.792 47.2499 35.208H50.4299C50.3659 34.8 50.1899 34.476 49.9019 34.236C49.6139 33.988 49.2619 33.864 48.8459 33.864ZM24.6999 47.544H26.5719V54H24.6999V47.544ZM25.6359 46.644C25.2919 46.644 25.0119 46.544 24.7959 46.344C24.5799 46.144 24.4719 45.896 24.4719 45.6C24.4719 45.304 24.5799 45.056 24.7959 44.856C25.0119 44.656 25.2919 44.556 25.6359 44.556C25.9799 44.556 26.2599 44.652 26.4759 44.844C26.6919 45.036 26.7999 45.276 26.7999 45.564C26.7999 45.876 26.6919 46.136 26.4759 46.344C26.2599 46.544 25.9799 46.644 25.6359 46.644ZM32.2333 47.448C33.0333 47.448 33.6773 47.688 34.1653 48.168C34.6613 48.648 34.9093 49.36 34.9093 50.304V54H33.0373V50.592C33.0373 50.08 32.9253 49.7 32.7013 49.452C32.4773 49.196 32.1533 49.068 31.7293 49.068C31.2573 49.068 30.8813 49.216 30.6013 49.512C30.3213 49.8 30.1813 50.232 30.1813 50.808V54H28.3093V47.544H30.0973V48.3C30.3453 48.028 30.6533 47.82 31.0213 47.676C31.3893 47.524 31.7933 47.448 32.2333 47.448ZM38.6582 47.688H40.3142V49.128H38.7062V54H36.8342V49.128H35.8382V47.688H36.8342V47.4C36.8342 46.664 37.0502 46.08 37.4822 45.648C37.9222 45.216 38.5382 45 39.3302 45C39.6102 45 39.8742 45.032 40.1222 45.096C40.3782 45.152 40.5902 45.236 40.7582 45.348L40.2662 46.704C40.0502 46.552 39.7982 46.476 39.5102 46.476C38.9422 46.476 38.6582 46.788 38.6582 47.412V47.688ZM44.2368 54.096C43.5568 54.096 42.9448 53.956 42.4008 53.676C41.8648 53.388 41.4448 52.992 41.1408 52.488C40.8368 51.984 40.6848 51.412 40.6848 50.772C40.6848 50.132 40.8368 49.56 41.1408 49.056C41.4448 48.552 41.8648 48.16 42.4008 47.88C42.9448 47.592 43.5568 47.448 44.2368 47.448C44.9168 47.448 45.5248 47.592 46.0608 47.88C46.5968 48.16 47.0168 48.552 47.3208 49.056C47.6248 49.56 47.7768 50.132 47.7768 50.772C47.7768 51.412 47.6248 51.984 47.3208 52.488C47.0168 52.992 46.5968 53.388 46.0608 53.676C45.5248 53.956 44.9168 54.096 44.2368 54.096ZM44.2368 52.56C44.7168 52.56 45.1088 52.4 45.4128 52.08C45.7248 51.752 45.8808 51.316 45.8808 50.772C45.8808 50.228 45.7248 49.796 45.4128 49.476C45.1088 49.148 44.7168 48.984 44.2368 48.984C43.7568 48.984 43.3608 49.148 43.0488 49.476C42.7368 49.796 42.5808 50.228 42.5808 50.772C42.5808 51.316 42.7368 51.752 43.0488 52.08C43.3608 52.4 43.7568 52.56 44.2368 52.56Z" fill="black"/>
</svg>
