<svg width="150" height="25" viewBox="0 0 150 25" fill="none" xmlns="http://www.w3.org/2000/svg">
<path d="M15 0L18.3677 8.63729H29.2658L20.4491 13.9754L23.8168 22.6127L15 17.2746L6.18322 22.6127L9.55093 13.9754L0.734152 8.63729H11.6323L15 0Z" fill="#A36338"/>
<path d="M45 0L48.3677 8.63729H59.2658L50.4491 13.9754L53.8168 22.6127L45 17.2746L36.1832 22.6127L39.5509 13.9754L30.7342 8.63729H41.6323L45 0Z" fill="#A36338"/>
<path d="M75 0L78.3677 8.63729H89.2658L80.4491 13.9754L83.8168 22.6127L75 17.2746L66.1832 22.6127L69.5509 13.9754L60.7342 8.63729H71.6323L75 0Z" fill="#A36338"/>
<path d="M105 0L108.368 8.63729H119.266L110.449 13.9754L113.817 22.6127L105 17.2746L96.1832 22.6127L99.5509 13.9754L90.7342 8.63729H101.632L105 0Z" fill="#A36338"/>
<path d="M135 0L138.368 8.63729H149.266L140.449 13.9754L143.817 22.6127L135 17.2746L126.183 22.6127L129.551 13.9754L120.734 8.63729H131.632L135 0Z" fill="#A36338"/>
</svg>
